<?xml version="1.0" encoding="utf-8"?>
<!-- Generator: Adobe Illustrator 22.0.0, SVG Export Plug-In . SVG Version: 6.00 Build 0)  -->
<svg version="1.1" id="Layer_1" xmlns="http://www.w3.org/2000/svg" xmlns:xlink="http://www.w3.org/1999/xlink" x="0px" y="0px"
	 viewBox="0 0 136.5 50.5" style="enable-background:new 0 0 136.5 50.5;" xml:space="preserve">
<style type="text/css">
	.st0{enable-background:new    ;}
	.st1{fill:#FFFFFF;}
</style>
<g class="st0">
	<path class="st1" d="M62,8.1h-2.1v5.9h-0.9V8.1h-2.1V7.4H62V8.1z"/>
	<path class="st1" d="M63.7,9.8c0.2-0.2,0.4-0.4,0.6-0.6C64.5,9.1,64.8,9,65.1,9c0.5,0,0.9,0.2,1.2,0.5s0.4,0.8,0.4,1.5v3.1h-0.9V11
		c0-0.4-0.1-0.7-0.3-0.9c-0.2-0.2-0.4-0.3-0.8-0.3c-0.2,0-0.5,0.1-0.7,0.2c-0.2,0.1-0.4,0.3-0.5,0.5v3.6h-0.9V7h0.9V9.8z"/>
	<path class="st1" d="M69,7.9h-0.9V7H69V7.9z M69,14.1h-0.9V9.1H69V14.1z"/>
	<path class="st1" d="M73.3,12.7c0-0.2-0.1-0.4-0.2-0.5c-0.2-0.1-0.4-0.2-0.9-0.3c-0.6-0.1-1-0.3-1.3-0.5c-0.3-0.2-0.5-0.5-0.5-0.9
		c0-0.4,0.2-0.7,0.5-1S71.7,9,72.2,9c0.6,0,1,0.1,1.4,0.4c0.3,0.3,0.5,0.7,0.5,1.1l0,0h-0.9c0-0.2-0.1-0.4-0.3-0.6
		c-0.2-0.2-0.4-0.3-0.7-0.3c-0.3,0-0.6,0.1-0.7,0.2c-0.2,0.1-0.2,0.3-0.2,0.5c0,0.2,0.1,0.3,0.2,0.5c0.1,0.1,0.4,0.2,0.8,0.3
		c0.6,0.1,1.1,0.3,1.4,0.5c0.3,0.2,0.5,0.5,0.5,0.9c0,0.4-0.2,0.8-0.5,1.1c-0.4,0.3-0.8,0.4-1.4,0.4c-0.6,0-1.1-0.2-1.5-0.5
		c-0.4-0.3-0.5-0.7-0.5-1.1l0,0h0.9c0,0.3,0.1,0.5,0.4,0.7c0.2,0.1,0.5,0.2,0.8,0.2c0.3,0,0.6-0.1,0.7-0.2
		C73.2,13.1,73.3,13,73.3,12.7z"/>
	<path class="st1" d="M78.5,7.9h-0.9V7h0.9V7.9z M78.5,14.1h-0.9V9.1h0.9V14.1z"/>
	<path class="st1" d="M82.8,12.7c0-0.2-0.1-0.4-0.2-0.5c-0.1-0.1-0.4-0.2-0.9-0.3c-0.6-0.1-1-0.3-1.3-0.5c-0.3-0.2-0.5-0.5-0.5-0.9
		c0-0.4,0.2-0.7,0.5-1C80.7,9.2,81.2,9,81.7,9c0.6,0,1,0.1,1.4,0.4c0.3,0.3,0.5,0.7,0.5,1.1l0,0h-0.9c0-0.2-0.1-0.4-0.3-0.6
		c-0.2-0.2-0.4-0.3-0.7-0.3c-0.3,0-0.6,0.1-0.7,0.2c-0.2,0.1-0.2,0.3-0.2,0.5c0,0.2,0.1,0.3,0.2,0.5c0.1,0.1,0.4,0.2,0.8,0.3
		c0.6,0.1,1.1,0.3,1.4,0.5c0.3,0.2,0.5,0.5,0.5,0.9c0,0.4-0.2,0.8-0.5,1.1s-0.8,0.4-1.4,0.4c-0.6,0-1.1-0.2-1.5-0.5
		c-0.4-0.3-0.5-0.7-0.5-1.1l0,0h0.9c0,0.3,0.1,0.5,0.4,0.7c0.2,0.1,0.5,0.2,0.8,0.2c0.3,0,0.6-0.1,0.7-0.2
		C82.7,13.1,82.8,13,82.8,12.7z"/>
	<path class="st1" d="M90.1,14.1c0-0.1-0.1-0.3-0.1-0.4c0-0.1,0-0.2,0-0.3c-0.2,0.2-0.4,0.4-0.7,0.6c-0.3,0.2-0.6,0.2-0.9,0.2
		c-0.5,0-0.9-0.1-1.2-0.4c-0.3-0.3-0.4-0.6-0.4-1.1c0-0.5,0.2-0.8,0.6-1.1c0.4-0.3,0.9-0.4,1.5-0.4h1v-0.5c0-0.3-0.1-0.5-0.3-0.7
		c-0.2-0.2-0.4-0.3-0.7-0.3c-0.3,0-0.5,0.1-0.7,0.2c-0.2,0.1-0.3,0.3-0.3,0.5h-0.9l0,0c0-0.4,0.2-0.7,0.5-1C88,9.2,88.5,9,89.1,9
		c0.6,0,1,0.1,1.3,0.4c0.3,0.3,0.5,0.7,0.5,1.2v2.4c0,0.2,0,0.3,0,0.5c0,0.2,0.1,0.3,0.1,0.5H90.1z M88.6,13.4
		c0.3,0,0.6-0.1,0.9-0.2s0.4-0.4,0.5-0.6v-0.8h-1c-0.4,0-0.6,0.1-0.9,0.3c-0.2,0.2-0.3,0.4-0.3,0.6c0,0.2,0.1,0.4,0.2,0.5
		C88.2,13.3,88.4,13.4,88.6,13.4z"/>
</g>
<g class="st0">
</g>
<g class="st0">
	<path class="st1" d="M65.9,24.7L65.9,24.7c0,1.1-0.3,2-1.1,2.7c-0.8,0.7-1.7,1.1-3,1.1c-1.3,0-2.3-0.4-3.1-1.3s-1.2-2-1.2-3.4v-2
		c0-1.4,0.4-2.5,1.2-3.4s1.8-1.3,3.1-1.3s2.2,0.3,3,1c0.7,0.7,1.1,1.5,1.1,2.6l0,0h-1.4c0-0.8-0.2-1.4-0.7-1.8
		c-0.5-0.5-1.1-0.7-1.9-0.7c-0.8,0-1.5,0.3-2,1c-0.5,0.7-0.7,1.5-0.7,2.5v2c0,1,0.2,1.8,0.7,2.5c0.5,0.7,1.2,1,2,1
		c0.8,0,1.5-0.2,1.9-0.7c0.5-0.4,0.7-1.1,0.7-1.9H65.9z"/>
	<path class="st1" d="M69.1,21.1c0.3-0.4,0.6-0.7,1-0.9c0.4-0.2,0.9-0.3,1.4-0.3c0.9,0,1.6,0.3,2,0.8c0.5,0.5,0.7,1.3,0.7,2.4v5.2
		h-1.5v-5.2c0-0.7-0.1-1.2-0.4-1.5s-0.7-0.5-1.3-0.5c-0.4,0-0.8,0.1-1.1,0.3s-0.6,0.5-0.8,0.8v6.1h-1.5V16.4h1.5V21.1z"/>
	<path class="st1" d="M80.3,21.3l-0.8,0c-0.4,0-0.7,0.1-1,0.3c-0.3,0.2-0.5,0.5-0.6,0.8v5.9h-1.5V20h1.3l0.1,1.2
		c0.2-0.4,0.5-0.8,0.9-1c0.3-0.2,0.7-0.4,1.2-0.4c0.1,0,0.2,0,0.3,0c0.1,0,0.2,0,0.3,0.1L80.3,21.3z"/>
	<path class="st1" d="M81.3,24.1c0-1.2,0.3-2.2,1-3c0.7-0.8,1.6-1.2,2.7-1.2c1.1,0,2,0.4,2.7,1.2c0.7,0.8,1,1.8,1,3v0.2
		c0,1.2-0.3,2.2-1,3C87,28,86.1,28.4,85,28.4s-2-0.4-2.7-1.2c-0.7-0.8-1-1.8-1-3V24.1z M82.8,24.2c0,0.9,0.2,1.6,0.6,2.2
		c0.4,0.6,0.9,0.9,1.6,0.9c0.7,0,1.3-0.3,1.6-0.9c0.4-0.6,0.6-1.3,0.6-2.2v-0.2c0-0.9-0.2-1.6-0.6-2.1s-0.9-0.9-1.6-0.9
		c-0.7,0-1.3,0.3-1.6,0.9c-0.4,0.6-0.6,1.3-0.6,2.1V24.2z"/>
	<path class="st1" d="M91.8,20l0.1,1.1c0.3-0.4,0.6-0.7,1-0.9c0.4-0.2,0.9-0.3,1.4-0.3c0.5,0,1,0.1,1.4,0.4c0.4,0.3,0.7,0.6,0.9,1.1
		c0.3-0.5,0.6-0.8,1-1.1s0.9-0.4,1.5-0.4c0.8,0,1.5,0.3,2,0.9c0.5,0.6,0.7,1.4,0.7,2.6v4.9h-1.5v-4.9c0-0.8-0.1-1.4-0.4-1.7
		s-0.7-0.5-1.2-0.5c-0.5,0-0.9,0.2-1.2,0.5C97.2,22,97,22.4,97,23V23v5.2h-1.5v-4.9c0-0.8-0.1-1.3-0.4-1.7c-0.3-0.4-0.7-0.5-1.2-0.5
		c-0.5,0-0.8,0.1-1.1,0.3s-0.5,0.5-0.7,0.8v6.1h-1.5V20H91.8z"/>
	<path class="st1" d="M107.5,28.4c-1.1,0-2.1-0.4-2.7-1.1c-0.7-0.8-1-1.8-1-3V24c0-1.2,0.3-2.1,1-2.9c0.7-0.8,1.5-1.2,2.5-1.2
		c1.1,0,1.9,0.3,2.5,1s0.9,1.6,0.9,2.7v0.9h-5.3l0,0c0,0.8,0.2,1.4,0.6,1.9c0.4,0.5,0.9,0.8,1.6,0.8c0.5,0,1-0.1,1.3-0.2
		s0.7-0.3,1-0.6l0.6,1c-0.3,0.3-0.7,0.5-1.2,0.7C108.8,28.3,108.2,28.4,107.5,28.4z M107.3,21.1c-0.5,0-0.9,0.2-1.3,0.6
		s-0.6,1-0.7,1.6l0,0h3.8v-0.2c0-0.6-0.2-1.1-0.5-1.5C108.4,21.2,107.9,21.1,107.3,21.1z"/>
</g>
<g class="st0">
	<path class="st1" d="M64.6,37.3h-5.1v4h5.8v1.2H58V31.4h7.3v1.2h-5.8v3.6h5.1V37.3z"/>
	<path class="st1" d="M69.6,37.3l1.7-3h1.7l-2.7,4.1l2.7,4.2h-1.7l-1.8-3.1l-1.8,3.1h-1.7l2.7-4.2l-2.7-4.1h1.7L69.6,37.3z"/>
	<path class="st1" d="M81.7,38.6c0,1.2-0.3,2.1-0.9,2.9c-0.6,0.7-1.4,1.1-2.3,1.1c-0.5,0-1-0.1-1.3-0.3s-0.7-0.4-1-0.8v4h-1.5V34.2
		h1.1l0.2,1.1c0.3-0.4,0.6-0.7,1-0.9c0.4-0.2,0.9-0.3,1.4-0.3c1,0,1.8,0.4,2.4,1.2c0.6,0.8,0.8,1.9,0.8,3.2V38.6z M80.2,38.5
		c0-0.9-0.2-1.7-0.6-2.3c-0.4-0.6-0.9-0.9-1.6-0.9c-0.4,0-0.8,0.1-1.1,0.3c-0.3,0.2-0.5,0.5-0.7,0.8v4c0.2,0.3,0.4,0.6,0.7,0.8
		c0.3,0.2,0.7,0.3,1.1,0.3c0.7,0,1.2-0.3,1.6-0.8c0.4-0.5,0.5-1.2,0.5-2V38.5z"/>
	<path class="st1" d="M86.9,42.6c-1.1,0-2.1-0.4-2.7-1.1s-1-1.8-1-3v-0.3c0-1.2,0.3-2.1,1-2.9c0.7-0.8,1.5-1.2,2.5-1.2
		c1.1,0,1.9,0.3,2.5,1c0.6,0.7,0.9,1.6,0.9,2.7v0.9h-5.3l0,0c0,0.8,0.2,1.4,0.6,1.9c0.4,0.5,0.9,0.8,1.6,0.8c0.5,0,1-0.1,1.3-0.2
		c0.4-0.1,0.7-0.3,1-0.6l0.6,1c-0.3,0.3-0.7,0.5-1.2,0.7C88.2,42.5,87.6,42.6,86.9,42.6z M86.7,35.3c-0.5,0-0.9,0.2-1.3,0.6
		c-0.4,0.4-0.6,1-0.7,1.6l0,0h3.8v-0.2c0-0.6-0.2-1.1-0.5-1.5C87.8,35.4,87.3,35.3,86.7,35.3z"/>
	<path class="st1" d="M95.7,35.5l-0.8,0c-0.4,0-0.7,0.1-1,0.3s-0.5,0.5-0.6,0.8v5.9h-1.5v-8.2h1.3l0.1,1.2c0.2-0.4,0.5-0.8,0.9-1
		c0.3-0.2,0.7-0.4,1.2-0.4c0.1,0,0.2,0,0.3,0s0.2,0,0.3,0.1L95.7,35.5z"/>
	<path class="st1" d="M98.7,32.1h-1.5v-1.5h1.5V32.1z M98.7,42.5h-1.5v-8.2h1.5V42.5z"/>
	<path class="st1" d="M102.4,34.2l0.1,1.1c0.3-0.4,0.6-0.7,1-0.9c0.4-0.2,0.9-0.3,1.4-0.3c0.5,0,1,0.1,1.4,0.4
		c0.4,0.3,0.7,0.6,0.9,1.1c0.3-0.5,0.6-0.8,1-1.1s0.9-0.4,1.5-0.4c0.8,0,1.5,0.3,2,0.9c0.5,0.6,0.7,1.4,0.7,2.6v4.9H111v-4.9
		c0-0.8-0.1-1.4-0.4-1.7s-0.7-0.5-1.2-0.5c-0.5,0-0.9,0.2-1.2,0.5c-0.3,0.4-0.5,0.8-0.6,1.3v0.1v5.2H106v-4.9c0-0.8-0.1-1.3-0.4-1.7
		c-0.3-0.4-0.7-0.5-1.2-0.5c-0.5,0-0.8,0.1-1.1,0.3s-0.5,0.5-0.7,0.8v6.1H101v-8.2H102.4z"/>
	<path class="st1" d="M118,42.6c-1.1,0-2.1-0.4-2.7-1.1c-0.7-0.8-1-1.8-1-3v-0.3c0-1.2,0.3-2.1,1-2.9c0.7-0.8,1.5-1.2,2.5-1.2
		c1.1,0,1.9,0.3,2.5,1s0.9,1.6,0.9,2.7v0.9h-5.3l0,0c0,0.8,0.2,1.4,0.6,1.9c0.4,0.5,0.9,0.8,1.6,0.8c0.5,0,1-0.1,1.3-0.2
		s0.7-0.3,1-0.6l0.6,1c-0.3,0.3-0.7,0.5-1.2,0.7C119.3,42.5,118.7,42.6,118,42.6z M117.8,35.3c-0.5,0-0.9,0.2-1.3,0.6
		s-0.6,1-0.7,1.6l0,0h3.8v-0.2c0-0.6-0.2-1.1-0.5-1.5C118.9,35.4,118.4,35.3,117.8,35.3z"/>
	<path class="st1" d="M124.2,34.2l0.1,1.2c0.3-0.4,0.6-0.8,1-1c0.4-0.2,0.9-0.4,1.4-0.4c0.9,0,1.6,0.3,2.1,0.8
		c0.5,0.5,0.7,1.3,0.7,2.4v5.2H128v-5.2c0-0.7-0.1-1.2-0.4-1.5c-0.3-0.3-0.7-0.5-1.3-0.5c-0.4,0-0.8,0.1-1.1,0.3
		c-0.3,0.2-0.6,0.5-0.8,0.9v6h-1.5v-8.2H124.2z"/>
	<path class="st1" d="M133.7,32.2v2h1.6v1.1h-1.6v5c0,0.4,0.1,0.7,0.2,0.8c0.2,0.2,0.4,0.2,0.6,0.2c0.1,0,0.2,0,0.3,0
		c0.1,0,0.2,0,0.3-0.1l0.2,1c-0.1,0.1-0.3,0.2-0.5,0.2c-0.2,0.1-0.4,0.1-0.6,0.1c-0.6,0-1.1-0.2-1.5-0.6c-0.4-0.4-0.5-0.9-0.5-1.7
		v-5h-1.3v-1.1h1.3v-2H133.7z"/>
</g>
<g id="PVDI5N.tif">
	<g>
		<g>
			<path class="st1" d="M26.5,1.2c1,0.1,2,0.2,3,0.4c2.1,0.4,4.1,1.1,6.1,2c2.2,1.1,4.3,2.5,6.1,4.2c1.6,1.5,2.9,3.2,4,5
				c0,0,0,0.1,0.1,0.2c-0.1,0-0.2,0-0.3,0c-6.4,0-12.8,0-19.1,0c-1.3,0-2.6,0-3.9,0.3c-2.6,0.6-4.8,1.9-6.6,3.9
				c-1.2,1.4-2.1,3-2.6,4.8c0,0,0,0.1-0.1,0.2c-0.3-0.5-0.5-0.9-0.7-1.3c-1.1-1.8-2.1-3.6-3.1-5.5c-0.9-1.6-1.9-3.3-2.9-4.9
				c-0.1-0.2-0.1-0.3,0.1-0.5c1.4-1.8,3.1-3.3,5-4.6C13.7,4,16,2.9,18.4,2.2c1.6-0.5,3.2-0.7,4.9-0.9c0.1,0,0.3-0.1,0.4-0.1
				C24.6,1.2,25.6,1.2,26.5,1.2z"/>
		</g>
		<g>
			<path class="st1" d="M25.4,49.4c0.5-0.9,1-1.7,1.5-2.6c1.2-2.2,2.5-4.3,3.7-6.5c1.3-2.3,2.7-4.6,4-7c0.7-1.3,1.6-2.5,2.1-3.9
				c0.8-2.3,0.9-4.6,0.4-7c-0.4-1.8-1.2-3.4-2.4-4.8c-0.3-0.3-0.6-0.7-1-1.1c0.3,0,0.4,0,0.5,0c4.3,0,8.6,0,12.8,0
				c0.3,0,0.5,0.1,0.6,0.4c0.8,2.1,1.3,4.3,1.4,6.6c0,0.1,0,0.3,0.1,0.4c0,1,0,2,0,2.9c-0.1,0.6-0.2,1.2-0.2,1.8
				c-0.3,2.7-1.2,5.3-2.4,7.7c-1.8,3.5-4.3,6.4-7.5,8.7c-3.1,2.2-6.5,3.6-10.3,4.2c-0.7,0.1-1.5,0.2-2.2,0.3
				C26.2,49.4,25.8,49.4,25.4,49.4z"/>
		</g>
		<g>
			<path class="st1" d="M1,23.9c0.1-0.9,0.2-1.8,0.4-2.7c0.4-2.4,1.2-4.8,2.4-7c0-0.2,0.2-0.4,0.3-0.7c0.2,0.3,0.3,0.5,0.4,0.7
				c1.7,2.9,3.4,5.9,5.1,8.8c1.4,2.5,2.9,5,4.3,7.5c0.7,1.2,1.4,2.4,2.3,3.4c1.5,1.5,3.3,2.6,5.3,3.3c2,0.6,3.9,0.7,5.9,0.3
				c0.1,0,0.3-0.1,0.4-0.1s0.2-0.1,0.5-0.1c-0.3,0.6-0.6,1-0.9,1.5c-1.5,2.6-3.1,5.3-4.6,7.9c-0.4,0.7-0.8,1.5-1.3,2.2
				c-0.1,0.1-0.3,0.2-0.4,0.2c-2.5-0.4-4.9-1.2-7.2-2.4c-2.1-1.1-4-2.5-5.7-4.1c-1.4-1.3-2.6-2.8-3.6-4.4c-1.3-2-2.2-4.1-2.9-6.3
				c-0.4-1.5-0.7-3.1-0.9-4.7c0-0.2-0.1-0.3-0.1-0.5C1,25.8,1,24.8,1,23.9z"/>
		</g>
		<g>
			<path class="st1" d="M16.4,25.3c0-4.9,3.9-8.8,8.8-8.7c4.8,0,8.7,4,8.7,8.8s-3.9,8.7-8.8,8.7S16.4,30.1,16.4,25.3z"/>
		</g>
	</g>
</g>
</svg>
