<?xml version="1.0" encoding="utf-8"?>
<!-- Generator: Adobe Illustrator 22.0.0, SVG Export Plug-In . SVG Version: 6.00 Build 0)  -->
<svg version="1.1" id="Layer_1" xmlns="http://www.w3.org/2000/svg" xmlns:xlink="http://www.w3.org/1999/xlink" x="0px" y="0px"
	 viewBox="0 0 136.5 50.5" style="enable-background:new 0 0 136.5 50.5;" xml:space="preserve">
<style type="text/css">
	.st0{fill:#FFFFFF;}
	.st1{font-family:'Roboto-Regular';}
	.st2{font-size:9.3048px;}
	.st3{font-size:15.5682px;}
</style>
<text transform="matrix(1 0 0 1 56.6616 14.0503)"><tspan x="0" y="0" class="st0 st1 st2">This is a</tspan><tspan x="34.9" y="0" class="st0 st1 st3"> </tspan><tspan x="0" y="14.2" class="st0 st1 st3">Chrome </tspan><tspan x="0" y="28.4" class="st0 st1 st3">Experiment</tspan></text>
<g id="PVDI5N.tif">
	<g>
		<path class="st0" d="M26.5,1.2c1,0.1,2,0.2,3,0.4c2.1,0.4,4.1,1.1,6.1,2c2.2,1.1,4.3,2.5,6.1,4.2c1.6,1.5,2.9,3.2,4,5
			c0,0,0,0.1,0.1,0.2c-0.1,0-0.2,0-0.3,0c-6.4,0-12.8,0-19.1,0c-1.3,0-2.6,0-3.9,0.3c-2.6,0.6-4.8,1.9-6.6,3.9
			c-1.2,1.4-2.1,3-2.6,4.8c0,0,0,0.1-0.1,0.2c-0.3-0.5-0.5-0.9-0.7-1.3c-1.1-1.8-2.1-3.6-3.1-5.5c-0.9-1.6-1.9-3.3-2.9-4.9
			c-0.1-0.2-0.1-0.3,0.1-0.5C8,8.2,9.7,6.7,11.6,5.4c2.1-1.4,4.4-2.5,6.8-3.2c1.6-0.5,3.2-0.7,4.9-0.9c0.1,0,0.3-0.1,0.4-0.1
			C24.6,1.2,25.6,1.2,26.5,1.2z"/>
		<path class="st0" d="M25.4,49.4c0.5-0.9,1-1.7,1.5-2.6c1.2-2.2,2.5-4.3,3.7-6.5c1.3-2.3,2.7-4.6,4-7c0.7-1.3,1.6-2.5,2.1-3.9
			c0.8-2.3,0.9-4.6,0.4-7c-0.4-1.8-1.2-3.4-2.4-4.8c-0.3-0.3-0.6-0.7-1-1.1c0.3,0,0.4,0,0.5,0c4.3,0,8.6,0,12.8,0
			c0.3,0,0.5,0.1,0.6,0.4c0.8,2.1,1.3,4.3,1.4,6.6c0,0.1,0,0.3,0.1,0.4c0,1,0,2,0,2.9c-0.1,0.6-0.2,1.2-0.2,1.8
			c-0.3,2.7-1.2,5.3-2.4,7.7c-1.8,3.5-4.3,6.4-7.5,8.7c-3.1,2.2-6.5,3.6-10.3,4.2c-0.7,0.1-1.5,0.2-2.2,0.3
			C26.2,49.4,25.8,49.4,25.4,49.4z"/>
		<path class="st0" d="M1,23.9c0.1-0.9,0.2-1.8,0.4-2.7c0.4-2.4,1.2-4.8,2.4-7C3.8,14,4,13.8,4.1,13.5c0.2,0.3,0.3,0.5,0.4,0.7
			c1.7,2.9,3.4,5.9,5.1,8.8c1.4,2.5,2.9,5,4.3,7.5c0.7,1.2,1.4,2.4,2.3,3.4c1.5,1.5,3.3,2.6,5.3,3.3c2,0.6,3.9,0.7,5.9,0.3
			c0.1,0,0.3-0.1,0.4-0.1c0.1,0,0.2-0.1,0.5-0.1c-0.3,0.6-0.6,1-0.9,1.5c-1.5,2.6-3.1,5.3-4.6,7.9c-0.4,0.7-0.8,1.5-1.3,2.2
			c-0.1,0.1-0.3,0.2-0.4,0.2c-2.5-0.4-4.9-1.2-7.2-2.4c-2.1-1.1-4-2.5-5.7-4.1c-1.4-1.3-2.6-2.8-3.6-4.4c-1.3-2-2.2-4.1-2.9-6.3
			c-0.4-1.5-0.7-3.1-0.9-4.7c0-0.2-0.1-0.3-0.1-0.5C1,25.8,1,24.8,1,23.9z"/>
		<path class="st0" d="M16.4,25.3c0-4.9,3.9-8.8,8.8-8.7c4.8,0,8.7,4,8.7,8.8c0,4.8-3.9,8.7-8.8,8.7C20.2,34.1,16.4,30.1,16.4,25.3z
			"/>
	</g>
</g>
</svg>
