<?xml version="1.0" encoding="utf-8"?>
<!-- Generator: Adobe Illustrator 22.0.0, SVG Export Plug-In . SVG Version: 6.00 Build 0)  -->
<svg version="1.1" id="Layer_1" xmlns="http://www.w3.org/2000/svg" xmlns:xlink="http://www.w3.org/1999/xlink" x="0px" y="0px"
	 viewBox="0 0 709.8 100" style="enable-background:new 0 0 709.8 100;" xml:space="preserve">
<style type="text/css">
	.st0{font-family:'Roboto-Regular';}
	.st1{font-size:47.6944px;}
	.st2{fill:#FFFFFF;}
</style>
<g id="_x32_tJ4QV.tif">
	<g>
		<path d="M1,50.9C5.2,41.5,12.8,35.4,21.1,30c8.6-5.5,18.1-8.8,28.4-9c13.3-0.2,24.9,4.6,35.4,12.4c6.3,4.7,11.9,10,15,17.4
			c0,0.7,0,1.5,0,2.2c-4.2,9.5-11.7,15.7-20.1,21c-8.7,5.5-18.2,8.9-28.6,9C38,83.2,26.5,78.3,16,70.6c-6.3-4.7-11.9-10-15-17.4
			C1,52.4,1,51.7,1,50.9z M52.8,79.2c15.9-0.9,30.4-9,41.5-23.5c2.3-2.9,2.1-4.3,0-7.4c-2.6-3.8-5.8-7.1-9.5-10
			C76,31.2,66.2,25.9,54.7,25.2c-20.2-1.3-35.7,7.7-48,23.1c-2.4,3-2.2,4.4,0,7.5c2.7,3.8,5.8,7.1,9.5,10
			C26.2,73.7,37.2,79,52.8,79.2z"/>
		<path d="M50.4,71.6c-10.7-0.1-19.6-9.1-19.5-19.8C31,41.2,40,32.4,50.6,32.4c10.7,0.1,19.6,9.1,19.5,19.8
			C69.9,62.8,61,71.7,50.4,71.6z M34.9,52c0,8.7,6.8,15.6,15.6,15.6c8.7,0,15.6-6.8,15.6-15.5c0-8.9-6.8-15.7-15.7-15.7
			C41.7,36.4,34.9,43.3,34.9,52z"/>
		<circle cx="50.2" cy="52.2" r="17.2"/>
	</g>
</g>
<text transform="matrix(1 0 0 1 122.999 66.1895)" class="st0 st1">tune motion sensitivity</text>
<circle class="st2" cx="50.8" cy="51.8" r="3.5"/>
</svg>
