<?xml version="1.0" encoding="utf-8"?>
<!-- Generator: Adobe Illustrator 22.0.0, SVG Export Plug-In . SVG Version: 6.00 Build 0)  -->
<svg version="1.1" id="Layer_1" xmlns="http://www.w3.org/2000/svg" xmlns:xlink="http://www.w3.org/1999/xlink" x="0px" y="0px"
	 viewBox="0 0 656.4 100" style="enable-background:new 0 0 656.4 100;" xml:space="preserve">
<style type="text/css">
	.st0{font-family:'Roboto-Regular';}
	.st1{font-size:47.6944px;}
</style>
<g id="X6FQMr.tif">
	<g>
		<path d="M41.8,99c-1-0.4-2-0.8-3.1-1.1c-7-2.4-11.6-8.5-11.9-15.9c-0.1-2,0.2-3.9,2.7-4.1c2.3-0.1,2.8,1.5,2.9,3.5
			c0.4,6,3.6,10,9.2,11.5c6,1.6,11.9-0.3,14.9-5.3c1.9-3.2,3.4-6.8,4.7-10.3c2.7-7.5,6.3-14.4,11-20.8c3.6-5,7.2-10.1,8.7-16.3
			c4.4-18.6-8.5-34.5-27.6-33.8c-3.8,0.2-7.8,0.8-11.4,2c-7.4,2.4-11.4,8.2-13.2,15.5c-0.5,2.1-0.9,4.1-3.5,3.6
			c-2.6-0.5-2.5-2.8-2-4.7C25.9,12,32.4,4.6,43.7,2.1C56.3-0.7,67.9,1,77.7,10c5.2,4.8,8.2,10.9,9.2,17.9c0.1,0.5,0.3,1,0.5,1.5
			c0,2.2,0,4.4,0,6.7c-1.3,7.3-3.8,14.1-8.3,20c-6.2,8.2-11,17.1-14.2,26.9c-2.7,8.1-7.5,14.2-16.4,16C46.3,99,44,99,41.8,99z"/>
		<path d="M59.3,48.5c0.7-2,1.2-4.2,2.2-6.1c2.8-5.1,2.1-10-0.9-14.7c-3.1-4.8-10.1-5.7-14.6-1.9c-4.2,3.5-4.4,9.1-0.2,13.4
			c1.5,1.6,3.2,3.1,4.8,4.6c2.7,2.6,4.3,5.8,3.4,9.5c-0.9,3.9-2.4,7.7-3.8,11.5c-0.4,1.1-1.5,2.1-2.5,3c-3,2.8-7.7,3.1-10.2,0.9
			c-2.5-2.2-2.6-6.8-0.1-10.2c1.1-1.5,2.4-2.9,3.6-4.2c3-3.4,2.8-8.6-0.9-11.3c-6.5-4.6-4.2-16,1.3-20.6c5.2-4.3,12.6-5.3,18.5-2.3
			c5.7,2.9,8.6,8.8,7.6,15.9c-0.4,3-1.4,6-2.7,8.6c-0.9,1.8-2.9,3.1-4.3,4.6C60.1,49.1,59.7,48.8,59.3,48.5z"/>
	</g>
</g>
<text transform="matrix(1 0 0 1 137.999 70.1895)" class="st0 st1">tune audio sensitivity</text>
</svg>
