<?xml version="1.0" encoding="utf-8"?>
<!-- Generator: Adobe Illustrator 22.0.0, SVG Export Plug-In . SVG Version: 6.00 Build 0)  -->
<svg version="1.1" id="Layer_1" xmlns="http://www.w3.org/2000/svg" xmlns:xlink="http://www.w3.org/1999/xlink" x="0px" y="0px"
	 viewBox="0 0 656.4 100" style="enable-background:new 0 0 656.4 100;" xml:space="preserve">
<style type="text/css">
	.st0{enable-background:new    ;}
</style>
<g id="X6FQMr.tif">
	<g>
		<g>
			<path d="M41.8,99c-1-0.4-2-0.8-3.1-1.1c-7-2.4-11.6-8.5-11.9-15.9c-0.1-2,0.2-3.9,2.7-4.1c2.3-0.1,2.8,1.5,2.9,3.5
				c0.4,6,3.6,10,9.2,11.5c6,1.6,11.9-0.3,14.9-5.3c1.9-3.2,3.4-6.8,4.7-10.3c2.7-7.5,6.3-14.4,11-20.8c3.6-5,7.2-10.1,8.7-16.3
				c4.4-18.6-8.5-34.5-27.6-33.8c-3.8,0.2-7.8,0.8-11.4,2c-7.4,2.4-11.4,8.2-13.2,15.5c-0.5,2.1-0.9,4.1-3.5,3.6s-2.5-2.8-2-4.7
				C25.9,12,32.4,4.6,43.7,2.1C56.3-0.7,67.9,1,77.7,10c5.2,4.8,8.2,10.9,9.2,17.9c0.1,0.5,0.3,1,0.5,1.5c0,2.2,0,4.4,0,6.7
				c-1.3,7.3-3.8,14.1-8.3,20c-6.2,8.2-11,17.1-14.2,26.9c-2.7,8.1-7.5,14.2-16.4,16C46.3,99,44,99,41.8,99z"/>
		</g>
		<g>
			<path d="M59.3,48.5c0.7-2,1.2-4.2,2.2-6.1c2.8-5.1,2.1-10-0.9-14.7C57.5,22.9,50.5,22,46,25.8c-4.2,3.5-4.4,9.1-0.2,13.4
				c1.5,1.6,3.2,3.1,4.8,4.6c2.7,2.6,4.3,5.8,3.4,9.5c-0.9,3.9-2.4,7.7-3.8,11.5c-0.4,1.1-1.5,2.1-2.5,3c-3,2.8-7.7,3.1-10.2,0.9
				s-2.6-6.8-0.1-10.2c1.1-1.5,2.4-2.9,3.6-4.2c3-3.4,2.8-8.6-0.9-11.3c-6.5-4.6-4.2-16,1.3-20.6c5.2-4.3,12.6-5.3,18.5-2.3
				c5.7,2.9,8.6,8.8,7.6,15.9c-0.4,3-1.4,6-2.7,8.6c-0.9,1.8-2.9,3.1-4.3,4.6C60.1,49.1,59.7,48.8,59.3,48.5z"/>
		</g>
	</g>
</g>
<g class="st0">
	<path d="M147.4,38.9V45h4.8v3.4h-4.8v15.3c0,1.2,0.2,2,0.7,2.5c0.5,0.5,1.1,0.7,1.9,0.7c0.3,0,0.6,0,0.9-0.1
		c0.3-0.1,0.6-0.1,0.9-0.2l0.6,3.1c-0.3,0.3-0.8,0.5-1.5,0.7c-0.7,0.2-1.3,0.3-2,0.3c-1.9,0-3.3-0.6-4.4-1.7s-1.7-2.9-1.7-5.3V48.4
		h-4V45h4v-6.1H147.4z"/>
	<path d="M173.8,66.5c-0.8,1.4-1.8,2.4-3.1,3.1s-2.7,1.1-4.3,1.1c-2.7,0-4.9-0.9-6.4-2.6c-1.5-1.8-2.3-4.5-2.3-8.2V45h4.6v14.9
		c0,2.7,0.4,4.5,1.2,5.5c0.8,1,2,1.5,3.7,1.5c1.6,0,3-0.3,4-1s1.9-1.6,2.4-2.8V45h4.6v25.2h-4.1L173.8,66.5z"/>
	<path d="M189,45l0.3,3.8c0.8-1.3,1.9-2.4,3.2-3.1c1.3-0.7,2.7-1.1,4.3-1.1c2.7,0,4.8,0.8,6.3,2.4c1.5,1.6,2.2,4,2.2,7.4v15.9h-4.6
		V54.4c0-2.2-0.4-3.8-1.3-4.7s-2.2-1.4-4-1.4c-1.3,0-2.5,0.3-3.5,1c-1,0.6-1.8,1.5-2.4,2.6v18.4h-4.6V45H189z"/>
	<path d="M222.5,70.7c-3.5,0-6.3-1.2-8.4-3.5s-3.1-5.4-3.1-9.1v-1c0-3.6,1.1-6.6,3.2-9c2.1-2.4,4.7-3.6,7.6-3.6c3.4,0,6,1,7.7,3.1
		c1.7,2,2.6,4.8,2.6,8.2v2.9h-16.3l-0.1,0.1c0,2.4,0.7,4.4,1.8,6c1.2,1.6,2.8,2.3,5,2.3c1.6,0,2.9-0.2,4.1-0.7s2.2-1.1,3-1.8l1.8,3
		c-0.9,0.9-2.1,1.6-3.6,2.2C226.4,70.4,224.6,70.7,222.5,70.7z M221.8,48.1c-1.5,0-2.8,0.6-3.9,1.9c-1.1,1.3-1.8,2.9-2,4.9l0,0.1
		h11.6v-0.6c0-1.8-0.5-3.3-1.4-4.5C225.1,48.7,223.7,48.1,221.8,48.1z"/>
	<path d="M264.6,70.2c-0.2-0.8-0.3-1.4-0.4-2c-0.1-0.6-0.1-1.2-0.2-1.8c-0.9,1.2-2,2.2-3.3,3c-1.4,0.8-2.9,1.2-4.4,1.2
		c-2.6,0-4.6-0.7-6-2s-2.1-3.2-2.1-5.6c0-2.4,1-4.3,2.9-5.6s4.6-2,7.9-2h5v-2.5c0-1.5-0.5-2.6-1.4-3.5c-0.9-0.9-2.2-1.3-3.8-1.3
		c-1.5,0-2.7,0.4-3.6,1.1c-0.9,0.8-1.4,1.7-1.4,2.7h-4.4l0-0.1c-0.1-1.8,0.8-3.5,2.6-5c1.8-1.5,4.2-2.3,7.1-2.3
		c2.9,0,5.2,0.7,6.9,2.2c1.7,1.5,2.6,3.5,2.6,6.3v12.1c0,0.9,0,1.8,0.1,2.6c0.1,0.8,0.3,1.7,0.5,2.5H264.6z M257,66.8
		c1.7,0,3.2-0.4,4.5-1.3c1.3-0.9,2.2-1.8,2.6-2.9v-4.1h-5.1c-1.8,0-3.3,0.5-4.4,1.4c-1.1,0.9-1.7,2-1.7,3.3c0,1.1,0.3,2,1,2.6
		C254.6,66.5,255.6,66.8,257,66.8z"/>
	<path d="M291.3,66.5c-0.8,1.4-1.8,2.4-3.1,3.1c-1.2,0.7-2.7,1.1-4.3,1.1c-2.7,0-4.9-0.9-6.4-2.6c-1.5-1.8-2.3-4.5-2.3-8.2V45h4.6
		v14.9c0,2.7,0.4,4.5,1.2,5.5c0.8,1,2,1.5,3.7,1.5c1.6,0,3-0.3,4-1c1.1-0.7,1.9-1.6,2.4-2.8V45h4.6v25.2h-4.1L291.3,66.5z"/>
	<path d="M301.4,58.1c0-4.1,0.9-7.3,2.6-9.8s4.2-3.7,7.3-3.7c1.5,0,2.8,0.3,3.9,0.8c1.1,0.5,2.1,1.3,2.9,2.4V33.9h4.6v36.3h-3.7
		l-0.5-3.1c-0.8,1.2-1.8,2.1-3,2.7s-2.6,0.9-4.2,0.9c-3.1,0-5.5-1.1-7.2-3.3c-1.7-2.2-2.6-5.2-2.6-8.8V58.1z M306,58.5
		c0,2.5,0.5,4.6,1.6,6.1c1,1.5,2.7,2.3,4.8,2.3c1.4,0,2.5-0.3,3.4-0.9c0.9-0.6,1.7-1.5,2.3-2.6V51.7c-0.6-1-1.4-1.9-2.3-2.5
		s-2.1-0.9-3.4-0.9c-2.2,0-3.8,0.9-4.9,2.7c-1,1.8-1.6,4.2-1.6,7.1V58.5z"/>
	<path d="M334.5,38.5h-4.6v-4.7h4.6V38.5z M334.5,70.2h-4.6V45h4.6V70.2z"/>
	<path d="M340.5,57.4c0-3.7,1-6.8,3-9.2s4.8-3.6,8.2-3.6c3.5,0,6.3,1.2,8.3,3.6s3,5.5,3,9.2v0.5c0,3.8-1,6.8-3,9.2
		c-2,2.4-4.8,3.6-8.2,3.6s-6.2-1.2-8.3-3.6c-2-2.4-3-5.5-3-9.2V57.4z M345.1,57.9c0,2.7,0.6,4.9,1.7,6.6c1.1,1.7,2.8,2.6,5,2.6
		c2.2,0,3.9-0.9,5-2.6c1.1-1.7,1.7-3.9,1.7-6.6v-0.5c0-2.6-0.6-4.8-1.7-6.6c-1.1-1.8-2.8-2.6-5-2.6c-2.2,0-3.8,0.9-5,2.6
		c-1.1,1.8-1.7,3.9-1.7,6.6V57.9z"/>
	<path d="M395.2,63.5c0-1-0.4-1.8-1.2-2.5c-0.8-0.7-2.2-1.2-4.4-1.7c-3.1-0.7-5.4-1.6-6.9-2.7c-1.5-1.1-2.3-2.7-2.3-4.7
		c0-2,0.9-3.8,2.6-5.2c1.7-1.4,4-2.2,6.8-2.2c2.9,0,5.3,0.8,7,2.3s2.6,3.3,2.5,5.5l0,0.1h-4.4c0-1.1-0.5-2.1-1.4-3s-2.1-1.3-3.7-1.3
		c-1.6,0-2.8,0.4-3.6,1.1s-1.2,1.6-1.2,2.6c0,1,0.3,1.8,1,2.4c0.7,0.6,2.1,1.1,4.3,1.5c3.2,0.7,5.5,1.6,7.1,2.8s2.3,2.7,2.3,4.7
		c0,2.2-0.9,4-2.7,5.4c-1.8,1.4-4.2,2.1-7.1,2.1c-3.2,0-5.7-0.8-7.6-2.4s-2.7-3.5-2.6-5.7l0-0.1h4.4c0.1,1.6,0.7,2.8,1.8,3.6
		c1.1,0.7,2.5,1.1,4,1.1c1.6,0,2.9-0.3,3.8-1S395.2,64.6,395.2,63.5z"/>
	<path d="M415.9,70.7c-3.5,0-6.3-1.2-8.4-3.5c-2.1-2.3-3.1-5.4-3.1-9.1v-1c0-3.6,1.1-6.6,3.2-9c2.1-2.4,4.7-3.6,7.6-3.6
		c3.4,0,6,1,7.7,3.1c1.7,2,2.6,4.8,2.6,8.2v2.9h-16.3l-0.1,0.1c0,2.4,0.7,4.4,1.8,6c1.2,1.6,2.8,2.3,5,2.3c1.6,0,2.9-0.2,4.1-0.7
		c1.2-0.4,2.2-1.1,3-1.8l1.8,3c-0.9,0.9-2.1,1.6-3.6,2.2C419.8,70.4,418,70.7,415.9,70.7z M415.2,48.1c-1.5,0-2.8,0.6-3.9,1.9
		s-1.8,2.9-2,4.9l0,0.1H421v-0.6c0-1.8-0.5-3.3-1.4-4.5C418.5,48.7,417.1,48.1,415.2,48.1z"/>
	<path d="M434.8,45l0.3,3.8c0.8-1.3,1.9-2.4,3.2-3.1s2.7-1.1,4.3-1.1c2.7,0,4.8,0.8,6.3,2.4c1.5,1.6,2.2,4,2.2,7.4v15.9h-4.6V54.4
		c0-2.2-0.4-3.8-1.3-4.7c-0.9-0.9-2.2-1.4-4-1.4c-1.3,0-2.5,0.3-3.5,1s-1.8,1.5-2.4,2.6v18.4h-4.6V45H434.8z"/>
	<path d="M472.4,63.5c0-1-0.4-1.8-1.2-2.5c-0.8-0.7-2.2-1.2-4.4-1.7c-3.1-0.7-5.4-1.6-6.9-2.7c-1.5-1.1-2.3-2.7-2.3-4.7
		c0-2,0.9-3.8,2.6-5.2c1.7-1.4,4-2.2,6.8-2.2c2.9,0,5.3,0.8,7,2.3s2.6,3.3,2.5,5.5l0,0.1h-4.4c0-1.1-0.5-2.1-1.4-3s-2.1-1.3-3.7-1.3
		c-1.6,0-2.8,0.4-3.6,1.1s-1.2,1.6-1.2,2.6c0,1,0.3,1.8,1,2.4c0.7,0.6,2.1,1.1,4.3,1.5c3.2,0.7,5.5,1.6,7.1,2.8s2.3,2.7,2.3,4.7
		c0,2.2-0.9,4-2.7,5.4c-1.8,1.4-4.2,2.1-7.1,2.1c-3.2,0-5.7-0.8-7.6-2.4s-2.7-3.5-2.6-5.7l0-0.1h4.4c0.1,1.6,0.7,2.8,1.8,3.6
		c1.1,0.7,2.5,1.1,4,1.1c1.6,0,2.9-0.3,3.8-1S472.4,64.6,472.4,63.5z"/>
	<path d="M487.7,38.5h-4.6v-4.7h4.6V38.5z M487.7,70.2h-4.6V45h4.6V70.2z"/>
	<path d="M500.8,38.9V45h4.8v3.4h-4.8v15.3c0,1.2,0.2,2,0.7,2.5c0.5,0.5,1.1,0.7,1.9,0.7c0.3,0,0.6,0,0.9-0.1
		c0.3-0.1,0.6-0.1,0.9-0.2l0.6,3.1c-0.3,0.3-0.8,0.5-1.5,0.7c-0.7,0.2-1.3,0.3-2,0.3c-1.9,0-3.3-0.6-4.4-1.7
		c-1.1-1.1-1.7-2.9-1.7-5.3V48.4h-4V45h4v-6.1H500.8z"/>
	<path d="M516.2,38.5h-4.6v-4.7h4.6V38.5z M516.2,70.2h-4.6V45h4.6V70.2z"/>
	<path d="M531.7,62.8l0.4,1.8h0.1l0.4-1.8l5.8-17.8h4.7l-9.3,25.2h-3.5L521,45h4.7L531.7,62.8z"/>
	<path d="M552.2,38.5h-4.6v-4.7h4.6V38.5z M552.2,70.2h-4.6V45h4.6V70.2z"/>
	<path d="M565.3,38.9V45h4.8v3.4h-4.8v15.3c0,1.2,0.2,2,0.7,2.5c0.5,0.5,1.1,0.7,1.9,0.7c0.3,0,0.6,0,0.9-0.1
		c0.3-0.1,0.6-0.1,0.9-0.2l0.6,3.1c-0.3,0.3-0.8,0.5-1.5,0.7c-0.7,0.2-1.3,0.3-2,0.3c-1.9,0-3.3-0.6-4.4-1.7
		c-1.1-1.1-1.7-2.9-1.7-5.3V48.4h-4V45h4v-6.1H565.3z"/>
	<path d="M583.5,60.9l0.8,3.2h0.1l6.2-19h5.1l-10.6,29.1c-0.6,1.7-1.5,3.2-2.7,4.4c-1.2,1.3-2.8,1.9-4.8,1.9c-0.4,0-0.8,0-1.4-0.1
		c-0.6-0.1-1-0.2-1.3-0.2l0.5-3.6c-0.1,0,0.2,0,0.8,0c0.6,0,1.1,0.1,1.2,0.1c1,0,1.8-0.4,2.4-1.3s1.1-1.8,1.6-2.9l1.1-2.6L573,45
		h5.1L583.5,60.9z"/>
</g>
</svg>
