<?xml version="1.0" encoding="utf-8"?>
<!-- Generator: Adobe Illustrator 22.0.0, SVG Export Plug-In . SVG Version: 6.00 Build 0)  -->
<svg version="1.1" id="Layer_1" xmlns="http://www.w3.org/2000/svg" xmlns:xlink="http://www.w3.org/1999/xlink" x="0px" y="0px"
	 viewBox="0 0 709.8 100" style="enable-background:new 0 0 709.8 100;" xml:space="preserve">
<style type="text/css">
	.st0{enable-background:new    ;}
	.st1{fill:#FFFFFF;}
</style>
<g id="_x32_tJ4QV.tif">
	<g>
		<g>
			<path d="M1,50.9C5.2,41.5,12.8,35.4,21.1,30c8.6-5.5,18.1-8.8,28.4-9c13.3-0.2,24.9,4.6,35.4,12.4c6.3,4.7,11.9,10,15,17.4
				c0,0.7,0,1.5,0,2.2c-4.2,9.5-11.7,15.7-20.1,21c-8.7,5.5-18.2,8.9-28.6,9C38,83.2,26.5,78.3,16,70.6c-6.3-4.7-11.9-10-15-17.4
				C1,52.4,1,51.7,1,50.9z M52.8,79.2c15.9-0.9,30.4-9,41.5-23.5c2.3-2.9,2.1-4.3,0-7.4c-2.6-3.8-5.8-7.1-9.5-10
				C76,31.2,66.2,25.9,54.7,25.2c-20.2-1.3-35.7,7.7-48,23.1c-2.4,3-2.2,4.4,0,7.5c2.7,3.8,5.8,7.1,9.5,10
				C26.2,73.7,37.2,79,52.8,79.2z"/>
		</g>
		<g>
			<path d="M50.4,71.6c-10.7-0.1-19.6-9.1-19.5-19.8C31,41.2,40,32.4,50.6,32.4c10.7,0.1,19.6,9.1,19.5,19.8
				C69.9,62.8,61,71.7,50.4,71.6z M34.9,52c0,8.7,6.8,15.6,15.6,15.6c8.7,0,15.6-6.8,15.6-15.5c0-8.9-6.8-15.7-15.7-15.7
				C41.7,36.4,34.9,43.3,34.9,52z"/>
		</g>
		<g>
			<circle cx="50.2" cy="52.2" r="17.2"/>
		</g>
	</g>
</g>
<g class="st0">
	<path d="M132.4,34.9V41h4.8v3.4h-4.8v15.3c0,1.2,0.2,2,0.7,2.5c0.5,0.5,1.1,0.7,1.9,0.7c0.3,0,0.6,0,0.9-0.1
		c0.3-0.1,0.6-0.1,0.9-0.2l0.6,3.1c-0.3,0.3-0.8,0.5-1.5,0.7c-0.7,0.2-1.3,0.3-2,0.3c-1.9,0-3.3-0.6-4.4-1.7s-1.7-2.9-1.7-5.3V44.4
		h-4V41h4v-6.1H132.4z"/>
	<path d="M158.8,62.5c-0.8,1.4-1.8,2.4-3.1,3.1s-2.7,1.1-4.3,1.1c-2.7,0-4.9-0.9-6.4-2.6c-1.5-1.8-2.3-4.5-2.3-8.2V41h4.6v14.9
		c0,2.7,0.4,4.5,1.2,5.5c0.8,1,2,1.5,3.7,1.5c1.6,0,3-0.3,4-1s1.9-1.6,2.4-2.8V41h4.6v25.2h-4.1L158.8,62.5z"/>
	<path d="M174,41l0.3,3.8c0.8-1.3,1.9-2.4,3.2-3.1c1.3-0.7,2.7-1.1,4.3-1.1c2.7,0,4.8,0.8,6.3,2.4c1.5,1.6,2.2,4,2.2,7.4v15.9h-4.6
		V50.4c0-2.2-0.4-3.8-1.3-4.7s-2.2-1.4-4-1.4c-1.3,0-2.5,0.3-3.5,1c-1,0.6-1.8,1.5-2.4,2.6v18.4h-4.6V41H174z"/>
	<path d="M207.5,66.7c-3.5,0-6.3-1.2-8.4-3.5s-3.1-5.4-3.1-9.1v-1c0-3.6,1.1-6.6,3.2-9c2.1-2.4,4.7-3.6,7.6-3.6c3.4,0,6,1,7.7,3.1
		c1.7,2,2.6,4.8,2.6,8.2v2.9h-16.3l-0.1,0.1c0,2.4,0.7,4.4,1.8,6c1.2,1.6,2.8,2.3,5,2.3c1.6,0,2.9-0.2,4.1-0.7s2.2-1.1,3-1.8l1.8,3
		c-0.9,0.9-2.1,1.6-3.6,2.2C211.4,66.4,209.6,66.7,207.5,66.7z M206.8,44.1c-1.5,0-2.8,0.6-3.9,1.9c-1.1,1.3-1.8,2.9-2,4.9l0,0.1
		h11.6v-0.6c0-1.8-0.5-3.3-1.4-4.5C210.1,44.7,208.7,44.1,206.8,44.1z"/>
	<path d="M238.2,41l0.3,3.3c0.8-1.2,1.9-2.1,3.1-2.8c1.3-0.7,2.7-1,4.4-1s3.1,0.4,4.3,1.2c1.2,0.8,2.1,1.9,2.7,3.5
		c0.8-1.4,1.8-2.6,3.1-3.4c1.3-0.8,2.8-1.3,4.6-1.3c2.6,0,4.6,0.9,6.1,2.6c1.5,1.8,2.2,4.4,2.2,8v15.1h-4.6V51.1
		c0-2.5-0.4-4.2-1.3-5.3c-0.9-1-2.1-1.5-3.8-1.5c-1.6,0-2.8,0.5-3.8,1.6c-1,1.1-1.5,2.5-1.7,4.1v0.2v16h-4.6V51.1
		c0-2.4-0.4-4.1-1.3-5.2c-0.9-1.1-2.1-1.6-3.8-1.6c-1.4,0-2.5,0.3-3.4,0.9c-0.9,0.6-1.6,1.4-2.1,2.4v18.7h-4.6V41H238.2z"/>
	<path d="M274.7,53.4c0-3.7,1-6.8,3-9.2c2-2.4,4.8-3.6,8.2-3.6c3.5,0,6.3,1.2,8.3,3.6c2,2.4,3,5.5,3,9.2v0.5c0,3.8-1,6.8-3,9.2
		c-2,2.4-4.8,3.6-8.2,3.6c-3.5,0-6.2-1.2-8.3-3.6c-2-2.4-3-5.5-3-9.2V53.4z M279.3,53.9c0,2.7,0.6,4.9,1.7,6.6
		c1.1,1.7,2.8,2.6,5,2.6c2.2,0,3.9-0.9,5-2.6s1.7-3.9,1.7-6.6v-0.5c0-2.6-0.6-4.8-1.7-6.6c-1.1-1.8-2.8-2.6-5-2.6
		c-2.2,0-3.8,0.9-5,2.6c-1.1,1.8-1.7,3.9-1.7,6.6V53.9z"/>
	<path d="M309,34.9V41h4.8v3.4H309v15.3c0,1.2,0.2,2,0.7,2.5c0.5,0.5,1.1,0.7,1.9,0.7c0.3,0,0.6,0,0.9-0.1c0.3-0.1,0.6-0.1,0.9-0.2
		l0.6,3.1c-0.3,0.3-0.8,0.5-1.5,0.7c-0.7,0.2-1.3,0.3-2,0.3c-1.9,0-3.3-0.6-4.4-1.7c-1.1-1.1-1.7-2.9-1.7-5.3V44.4h-4V41h4v-6.1H309
		z"/>
	<path d="M324.3,34.5h-4.6v-4.7h4.6V34.5z M324.3,66.2h-4.6V41h4.6V66.2z"/>
	<path d="M330.3,53.4c0-3.7,1-6.8,3-9.2s4.8-3.6,8.2-3.6c3.5,0,6.3,1.2,8.3,3.6s3,5.5,3,9.2v0.5c0,3.8-1,6.8-3,9.2
		c-2,2.4-4.8,3.6-8.2,3.6s-6.2-1.2-8.3-3.6c-2-2.4-3-5.5-3-9.2V53.4z M334.9,53.9c0,2.7,0.6,4.9,1.7,6.6c1.1,1.7,2.8,2.6,5,2.6
		c2.2,0,3.9-0.9,5-2.6c1.1-1.7,1.7-3.9,1.7-6.6v-0.5c0-2.6-0.6-4.8-1.7-6.6c-1.1-1.8-2.8-2.6-5-2.6c-2.2,0-3.8,0.9-5,2.6
		c-1.1,1.8-1.7,3.9-1.7,6.6V53.9z"/>
	<path d="M362.6,41l0.3,3.8c0.8-1.3,1.9-2.4,3.2-3.1s2.7-1.1,4.3-1.1c2.7,0,4.8,0.8,6.3,2.4c1.5,1.6,2.2,4,2.2,7.4v15.9h-4.6V50.4
		c0-2.2-0.4-3.8-1.3-4.7c-0.9-0.9-2.2-1.4-4-1.4c-1.3,0-2.5,0.3-3.5,1s-1.8,1.5-2.4,2.6v18.4h-4.6V41H362.6z"/>
	<path d="M412.1,59.5c0-1-0.4-1.8-1.2-2.5c-0.8-0.7-2.2-1.2-4.4-1.7c-3.1-0.7-5.4-1.6-6.9-2.7c-1.5-1.1-2.3-2.7-2.3-4.7
		c0-2,0.9-3.8,2.6-5.2c1.7-1.4,4-2.2,6.8-2.2c2.9,0,5.3,0.8,7,2.3s2.6,3.3,2.5,5.5l0,0.1h-4.4c0-1.1-0.5-2.1-1.4-3s-2.1-1.3-3.7-1.3
		c-1.6,0-2.8,0.4-3.6,1.1s-1.2,1.6-1.2,2.6c0,1,0.3,1.8,1,2.4c0.7,0.6,2.1,1.1,4.3,1.5c3.2,0.7,5.5,1.6,7.1,2.8s2.3,2.7,2.3,4.7
		c0,2.2-0.9,4-2.7,5.4c-1.8,1.4-4.2,2.1-7.1,2.1c-3.2,0-5.7-0.8-7.6-2.4s-2.7-3.5-2.6-5.7l0-0.1h4.4c0.1,1.6,0.7,2.8,1.8,3.6
		c1.1,0.7,2.5,1.1,4,1.1c1.6,0,2.9-0.3,3.8-1S412.1,60.6,412.1,59.5z"/>
	<path d="M432.9,66.7c-3.5,0-6.3-1.2-8.4-3.5c-2.1-2.3-3.1-5.4-3.1-9.1v-1c0-3.6,1.1-6.6,3.2-9c2.1-2.4,4.7-3.6,7.6-3.6
		c3.4,0,6,1,7.7,3.1c1.7,2,2.6,4.8,2.6,8.2v2.9h-16.3l-0.1,0.1c0,2.4,0.7,4.4,1.8,6c1.2,1.6,2.8,2.3,5,2.3c1.6,0,2.9-0.2,4.1-0.7
		c1.2-0.4,2.2-1.1,3-1.8l1.8,3c-0.9,0.9-2.1,1.6-3.6,2.2C436.8,66.4,435,66.7,432.9,66.7z M432.2,44.1c-1.5,0-2.8,0.6-3.9,1.9
		s-1.8,2.9-2,4.9l0,0.1h11.6v-0.6c0-1.8-0.5-3.3-1.4-4.5C435.5,44.7,434.1,44.1,432.2,44.1z"/>
	<path d="M451.7,41l0.3,3.8c0.8-1.3,1.9-2.4,3.2-3.1s2.7-1.1,4.3-1.1c2.7,0,4.8,0.8,6.3,2.4c1.5,1.6,2.2,4,2.2,7.4v15.9h-4.6V50.4
		c0-2.2-0.4-3.8-1.3-4.7c-0.9-0.9-2.2-1.4-4-1.4c-1.3,0-2.5,0.3-3.5,1s-1.8,1.5-2.4,2.6v18.4h-4.6V41H451.7z"/>
	<path d="M489.4,59.5c0-1-0.4-1.8-1.2-2.5c-0.8-0.7-2.2-1.2-4.4-1.7c-3.1-0.7-5.4-1.6-6.9-2.7c-1.5-1.1-2.3-2.7-2.3-4.7
		c0-2,0.9-3.8,2.6-5.2c1.7-1.4,4-2.2,6.8-2.2c2.9,0,5.3,0.8,7,2.3s2.6,3.3,2.5,5.5l0,0.1h-4.4c0-1.1-0.5-2.1-1.4-3s-2.1-1.3-3.7-1.3
		c-1.6,0-2.8,0.4-3.6,1.1s-1.2,1.6-1.2,2.6c0,1,0.3,1.8,1,2.4c0.7,0.6,2.1,1.1,4.3,1.5c3.2,0.7,5.5,1.6,7.1,2.8s2.3,2.7,2.3,4.7
		c0,2.2-0.9,4-2.7,5.4c-1.8,1.4-4.2,2.1-7.1,2.1c-3.2,0-5.7-0.8-7.6-2.4s-2.7-3.5-2.6-5.7l0-0.1h4.4c0.1,1.6,0.7,2.8,1.8,3.6
		c1.1,0.7,2.5,1.1,4,1.1c1.6,0,2.9-0.3,3.8-1S489.4,60.6,489.4,59.5z"/>
	<path d="M504.6,34.5h-4.6v-4.7h4.6V34.5z M504.6,66.2h-4.6V41h4.6V66.2z"/>
	<path d="M517.8,34.9V41h4.8v3.4h-4.8v15.3c0,1.2,0.2,2,0.7,2.5c0.5,0.5,1.1,0.7,1.9,0.7c0.3,0,0.6,0,0.9-0.1
		c0.3-0.1,0.6-0.1,0.9-0.2l0.6,3.1c-0.3,0.3-0.8,0.5-1.5,0.7c-0.7,0.2-1.3,0.3-2,0.3c-1.9,0-3.3-0.6-4.4-1.7
		c-1.1-1.1-1.7-2.9-1.7-5.3V44.4h-4V41h4v-6.1H517.8z"/>
	<path d="M533.2,34.5h-4.6v-4.7h4.6V34.5z M533.2,66.2h-4.6V41h4.6V66.2z"/>
	<path d="M548.6,58.8l0.4,1.8h0.1l0.4-1.8l5.8-17.8h4.7l-9.3,25.2h-3.5L537.9,41h4.7L548.6,58.8z"/>
	<path d="M569.2,34.5h-4.6v-4.7h4.6V34.5z M569.2,66.2h-4.6V41h4.6V66.2z"/>
	<path d="M582.3,34.9V41h4.8v3.4h-4.8v15.3c0,1.2,0.2,2,0.7,2.5c0.5,0.5,1.1,0.7,1.9,0.7c0.3,0,0.6,0,0.9-0.1
		c0.3-0.1,0.6-0.1,0.9-0.2l0.6,3.1c-0.3,0.3-0.8,0.5-1.5,0.7c-0.7,0.2-1.3,0.3-2,0.3c-1.9,0-3.3-0.6-4.4-1.7
		c-1.1-1.1-1.7-2.9-1.7-5.3V44.4h-4V41h4v-6.1H582.3z"/>
	<path d="M600.4,56.9l0.8,3.2h0.1l6.2-19h5.1l-10.6,29.1c-0.6,1.7-1.5,3.2-2.7,4.4c-1.2,1.3-2.8,1.9-4.8,1.9c-0.4,0-0.8,0-1.4-0.1
		c-0.6-0.1-1-0.2-1.3-0.2l0.5-3.6c-0.1,0,0.2,0,0.8,0c0.6,0,1.1,0.1,1.2,0.1c1,0,1.8-0.4,2.4-1.3s1.1-1.8,1.6-2.9l1.1-2.6L590,41
		h5.1L600.4,56.9z"/>
</g>
<g>
	<circle class="st1" cx="50.8" cy="51.8" r="3.5"/>
</g>
</svg>
