<?xml version="1.0" encoding="utf-8"?>
<!-- Generator: Adobe Illustrator 22.0.0, SVG Export Plug-In . SVG Version: 6.00 Build 0)  -->
<svg version="1.1" id="Layer_1" xmlns="http://www.w3.org/2000/svg" xmlns:xlink="http://www.w3.org/1999/xlink" x="0px" y="0px"
	 viewBox="0 0 756.7 370.7" style="enable-background:new 0 0 756.7 370.7;" xml:space="preserve">
<style type="text/css">
	.st0{fill-rule:evenodd;clip-rule:evenodd;fill:none;stroke:#FFFFFF;stroke-miterlimit:10;}
	.st1{fill-rule:evenodd;clip-rule:evenodd;fill:none;stroke:#FBD53C;stroke-miterlimit:10;}
	.st2{fill-rule:evenodd;clip-rule:evenodd;fill:none;stroke:#00B3C8;stroke-width:2;stroke-miterlimit:10;}
	.st3{fill-rule:evenodd;clip-rule:evenodd;fill:none;stroke:#ED2530;stroke-width:2;stroke-miterlimit:10;}
	.st4{fill:#00B3C8;}
	.st5{font-family:'AmericanTypewriter';}
	.st6{font-size:34.9847px;}
</style>
<g>
	<g>
		<path class="st0" d="M720.4,112.1c3,6.8,4.5,14,4.3,21.6c-1.7,74.5-158,161.2-347.9,193C201.1,356.2,56.6,328.6,37,265.4
			c26,59.3,167.2,84.4,337.7,55.9c190-31.8,346.3-118.5,347.9-193C722.7,122.7,722,117.3,720.4,112.1L720.4,112.1z"/>
		<path class="st1" d="M380.7,50.8c190-31.8,343.6,3,341.9,77.5c-1.7,74.5-158,161.2-347.9,193c-190,31.8-343.6-3-342-77.5
			C34.4,169.3,190.7,82.6,380.7,50.8L380.7,50.8z"/>
		<polygon class="st0" points="327.3,55.3 302.7,99.3 301.4,96.6 324.5,55.3 327.3,55.3 		"/>
		<polygon class="st2" points="326,52.6 301.4,96.6 280.2,52.6 326,52.6 		"/>
		<path class="st0" d="M282.1,116.1h29.5l-20,154.3h10.7l-1,7.9h-40.2l1-7.9h10.7l19-146.4H281L282.1,116.1L282.1,116.1z M552,220.2
			c-3.9,19-9.6,33.9-17.2,44.6c-8.4,12-18.5,17.9-30.2,17.9c-13.1,0-23-8.2-29.6-24.8c-6.6-16.5-8.2-37.6-4.9-63
			c3.3-25.3,10.4-46.1,21.2-62.4c10.8-16.3,22.8-24.4,35.8-24.4c12.2,0,20.9,6.1,26.1,18.3c5.2,12.1,6.4,29.2,3.5,50.9l-0.6,4.6
			h-63.3c-0.2,1.2-0.5,3.5-1,6.6c-0.5,3.1-0.8,5.6-1.1,7.4c-3.3,25.6-3.5,45-0.6,58c3,13.1,9,19.6,18.2,19.6
			c8.8,0,16.7-5.3,23.7-15.9c6.1-9.3,10.9-21.8,14.3-37.5C547.2,213.6,553.1,214.6,552,220.2L552,220.2z M494.5,173.7l41.9,0.2
			c0.4-2.3,0.7-4.6,1-6.6c0.3-2.1,0.5-4,0.8-5.8c2-15.7,2-27.3,0-35c-2.1-7.6-6.2-11.5-12.4-11.5c-7,0-13.3,5.1-18.7,15.4
			C501.6,140.6,497.4,155,494.5,173.7L494.5,173.7z M266.9,220.2c-3.9,19-9.6,33.9-17.2,44.6c-8.4,12-18.5,17.9-30.2,17.9
			c-13.1,0-23-8.2-29.6-24.8c-6.6-16.5-8.2-37.6-4.9-63c3.3-25.3,10.4-46.1,21.2-62.4c10.8-16.3,22.8-24.4,35.8-24.4
			c12.2,0,20.9,6.1,26.1,18.3c5.2,12.1,6.4,29.2,3.5,50.9l-0.6,4.6h-63.3c-0.2,1.2-0.5,3.5-1,6.6c-0.5,3.1-0.8,5.6-1.1,7.4
			c-3.3,25.6-3.5,45-0.6,58c3,13.1,9,19.6,18.2,19.6c8.8,0,16.7-5.3,23.7-15.9c6.1-9.3,10.9-21.8,14.3-37.5
			C262.1,213.6,268,214.6,266.9,220.2L266.9,220.2z M209.5,173.7l41.9,0.2c0.4-2.3,0.7-4.6,1-6.6c0.3-2.1,0.5-4,0.8-5.8
			c2-15.7,2-27.3,0-35c-2.1-7.6-6.2-11.5-12.4-11.5c-7,0-13.3,5.1-18.7,15.4C216.5,140.6,212.4,155,209.5,173.7L209.5,173.7z
			 M85.7,199.5c0,0.4,0,1.1,0.1,2.2c2.5,51.9,11.2,77.4,26,76.6c9.9-0.5,18.7-5.8,26.4-15.7c7.7-9.9,12.5-22,14.3-36.3
			c1.3-9.7,0.4-17.8-2.5-24.2c-3-6.4-10.3-13.9-22.1-22.4c-17.5-12.5-28.4-23.1-32.5-31.9c-4.1-8.8-5.3-20.1-3.6-33.7
			c2.3-17.9,8.8-32.6,19.5-44.3c10.7-11.7,23.5-18,38.6-18.8c5.9-0.3,11.7,0.5,17.4,2.4c5.7,1.9,11.3,4.9,16.8,9
			c-2.7,20.7-5.3,41.3-8,62c-0.3,4.8-4.3,4.7-4.4,0.2c-0.1-1.7-0.2-4-0.5-6.9c-2.4-40.6-10.8-60.5-25.1-59.7
			c-9.5,0.5-17.8,4.6-25,12.4c-7.1,7.7-11.4,17.2-12.9,28.4c-2.2,17.3,7.2,33.3,28.4,48c1,0.6,1.6,1.1,2.1,1.4
			c16.2,11.2,26.4,21.3,30.4,30.3c4.1,9.1,5.2,20.6,3.4,34.5c-2.6,19.7-9.8,36.6-21.7,50.6c-11.9,14-25.6,21.4-41.2,22.2
			c-8.5,0.5-16.1-0.9-22.8-4.3c-6.8-3.3-11.5-7.9-14.3-13.7c2.9-22.7,5.9-45.4,8.8-68.2C81.6,196.1,85.4,196.1,85.7,199.5
			L85.7,199.5z M654.3,120.7c-7.6,0-13.9,6.4-19.1,19.2c-5.2,12.8-9.5,32.7-12.9,59.5c-3.2,25.1-3.8,43.7-1.8,55.8
			c2,12.1,6.8,18.1,14.2,18.1c7.3,0,13.4-6.2,18.5-18.6c5.1-12.4,9.3-31.3,12.5-56.9c3.5-27.4,4.3-47.1,2.5-59.1
			C666.4,126.7,661.8,120.7,654.3,120.7L654.3,120.7z M670.8,65l1-7.9h29.7L674.4,270h11.2l-1,8.2h-28l4.2-32.8
			c-3.5,12.6-7.8,22-12.9,28.2c-5,6.1-11,9.2-17.9,9.2c-11.4,0-19.7-7.8-25-23.3c-5.2-15.6-6.2-35.9-3.1-60.9
			c3.2-24.9,9.6-45.6,19.2-62.1c9.6-16.4,20.1-24.6,31.3-24.6c6.1,0,10.9,2.6,14.3,7.8c3.4,5.2,5.5,13.1,6.1,23.5l9.9-78.1H670.8
			L670.8,65z M575.7,57.1h29.1l-27.2,213.2h11.3l-1,7.9h-40.4l1-7.9H559L585.2,65h-10.5L575.7,57.1L575.7,57.1z M459.1,278.3h-48.9
			l1.1-8.4h12.4L444,121.7h-10l1.1-8h10l1.3-9.2c2.5-18.3,6.8-32.1,13-41.4c6.2-9.3,14.1-13.9,23.9-13.9c3.3,0,6.5,0.5,9.5,1.7
			c3.1,1.1,6.1,2.8,9.1,5.1c-1.8,13.4-3.7,26.7-5.5,40.1c-0.4,4.5-6.2,4.2-6.5,0c-1.4-17.6-2.7-28.7-3.9-33.3
			c-1.2-4.6-2.9-6.8-5.1-6.8c-2.9,0-5.2,2.2-6.9,6.5c-1.7,4.3-3.6,13.8-5.6,28.4l-3.1,22.8h23.8l-1.1,8h-23.8l-20.2,148.2h16.2
			L459.1,278.3L459.1,278.3z M308.9,278.3l1.1-7.9h10.8L340.2,124h-10.8l1.1-7.9h28.4l-3.6,27.4c3.2-9.6,7.8-17.4,13.7-23.2
			c6-5.8,12.3-8.7,18.9-8.7c10.3,0,17,4.2,20.1,12.6c3.1,8.4,2.9,25.3-0.4,50.7l-12.7,95.5h10.8l-1.1,7.9h-40l1.1-7.9h11l13.1-98.2
			c3-22.2,3.8-36.3,2.4-42.3c-1.4-6-4.8-9-10.4-9c-6.9,0-13.1,5.5-18.7,16.4c-5.6,10.9-9.6,25.6-12.1,44.2l-11.9,89h10.8l-1.1,7.9
			H308.9L308.9,278.3z"/>
		<path class="st3" d="M280,113.4h29.5l-20,154.3h10.7l-1,7.9H259l1-7.9h10.7l19-146.4H279L280,113.4L280,113.4z M549.9,217.5
			c-3.9,19-9.6,33.9-17.2,44.6c-8.4,12-18.5,17.9-30.2,17.9c-13.1,0-23-8.2-29.6-24.8c-6.6-16.5-8.2-37.6-4.9-63
			c3.3-25.3,10.4-46.1,21.2-62.4c10.8-16.3,22.8-24.4,35.8-24.4c12.2,0,20.9,6.1,26.1,18.3c5.2,12.1,6.4,29.2,3.5,50.9l-0.6,4.6
			h-63.3c-0.2,1.2-0.5,3.5-1,6.6c-0.5,3.1-0.8,5.6-1.1,7.4c-3.3,25.6-3.5,45-0.6,58c3,13.1,9,19.6,18.2,19.6
			c8.8,0,16.7-5.3,23.7-15.9c6.1-9.3,10.9-21.8,14.3-37.5C545.1,210.9,551.1,211.9,549.9,217.5L549.9,217.5z M492.5,171l41.9,0.2
			c0.4-2.3,0.7-4.6,1-6.6c0.3-2.1,0.5-4,0.8-5.8c2-15.7,2-27.3,0-35c-2.1-7.6-6.2-11.5-12.4-11.5c-7,0-13.3,5.1-18.7,15.4
			C499.6,137.9,495.4,152.3,492.5,171L492.5,171z M264.8,217.5c-3.9,19-9.6,33.9-17.2,44.6c-8.4,12-18.5,17.9-30.2,17.9
			c-13.1,0-23-8.2-29.6-24.8c-6.6-16.5-8.2-37.6-4.9-63c3.3-25.3,10.4-46.1,21.2-62.4c10.8-16.3,22.8-24.4,35.8-24.4
			c12.2,0,20.9,6.1,26.1,18.3c5.2,12.1,6.4,29.2,3.5,50.9l-0.6,4.6h-63.3c-0.2,1.2-0.5,3.5-1,6.6c-0.5,3.1-0.8,5.6-1.1,7.4
			c-3.3,25.6-3.5,45-0.6,58c3,13.1,9,19.6,18.2,19.6c8.8,0,16.7-5.3,23.7-15.9c6.1-9.3,10.9-21.8,14.3-37.5
			C260,210.9,266,211.9,264.8,217.5L264.8,217.5z M207.4,171l41.9,0.2c0.4-2.3,0.7-4.6,1-6.6c0.3-2.1,0.5-4,0.8-5.8
			c2-15.7,2-27.3,0-35c-2.1-7.6-6.2-11.5-12.4-11.5c-7,0-13.3,5.1-18.7,15.4C214.5,137.9,210.3,152.3,207.4,171L207.4,171z
			 M83.6,196.8c0,0.4,0,1.1,0.1,2.2c2.5,51.9,11.2,77.4,26,76.6c9.9-0.5,18.7-5.8,26.4-15.7c7.7-9.9,12.5-22,14.3-36.3
			c1.3-9.7,0.4-17.8-2.5-24.2c-3-6.4-10.3-13.9-22.1-22.4c-17.5-12.5-28.4-23.1-32.5-31.9c-4.1-8.8-5.3-20.1-3.6-33.7
			c2.3-17.8,8.8-32.6,19.5-44.3c10.7-11.7,23.5-18,38.6-18.8c5.9-0.3,11.7,0.5,17.4,2.4c5.7,1.9,11.3,4.9,16.8,9
			c-2.7,20.7-5.3,41.3-8,62c-0.3,4.8-4.3,4.7-4.4,0.2c-0.1-1.7-0.2-4-0.5-6.9c-2.4-40.6-10.8-60.5-25.1-59.7
			c-9.5,0.5-17.8,4.6-25,12.4c-7.1,7.7-11.4,17.2-12.9,28.4c-2.2,17.3,7.2,33.3,28.4,48c1,0.6,1.6,1.1,2.1,1.4
			c16.2,11.2,26.4,21.3,30.4,30.3c4.1,9.1,5.2,20.6,3.4,34.5c-2.6,19.7-9.8,36.6-21.7,50.6c-11.9,14-25.6,21.4-41.2,22.2
			c-8.5,0.5-16.1-0.9-22.8-4.3c-6.8-3.3-11.5-7.9-14.3-13.7c2.9-22.7,5.9-45.4,8.8-68.2C79.6,193.4,83.4,193.4,83.6,196.8
			L83.6,196.8z M652.3,118c-7.6,0-13.9,6.4-19.1,19.2c-5.2,12.8-9.5,32.7-12.9,59.5c-3.2,25.1-3.8,43.7-1.8,55.8
			c2,12.1,6.8,18.1,14.2,18.1c7.3,0,13.4-6.2,18.5-18.6c5.1-12.4,9.3-31.3,12.5-56.9c3.5-27.4,4.3-47.1,2.5-59.1
			C664.4,124,659.8,118,652.3,118L652.3,118z M668.8,62.3l1-7.9h29.7l-27.1,212.9h11.2l-1,8.2h-28l4.2-32.8
			c-3.5,12.6-7.8,22-12.9,28.2c-5,6.1-11,9.2-17.9,9.2c-11.4,0-19.7-7.8-25-23.3c-5.2-15.6-6.2-35.9-3.1-60.9
			c3.2-24.9,9.6-45.6,19.2-62.1c9.6-16.4,20.1-24.7,31.3-24.7c6.1,0,10.9,2.6,14.3,7.8c3.4,5.2,5.5,13.1,6.1,23.5l9.9-78.1H668.8
			L668.8,62.3z M573.7,54.4h29.1l-27.2,213.2h11.3l-1,7.9h-40.4l1-7.9H557l26.2-205.3h-10.5L573.7,54.4L573.7,54.4z M457.1,275.5
			h-48.9l1.1-8.4h12.4L442,119h-10l1.1-8h10l1.3-9.2c2.5-18.3,6.8-32.1,13-41.4c6.2-9.3,14.1-13.9,23.9-13.9c3.3,0,6.5,0.5,9.5,1.7
			c3.1,1.1,6.1,2.8,9.1,5.1c-1.8,13.4-3.7,26.7-5.5,40.1c-0.4,4.5-6.2,4.2-6.5,0c-1.4-17.6-2.7-28.7-3.9-33.3
			c-1.2-4.6-2.9-6.8-5.1-6.8c-2.9,0-5.2,2.2-6.9,6.5c-1.7,4.3-3.6,13.8-5.6,28.4l-3.1,22.8h23.8l-1.1,8h-23.8L442,267.2h16.2
			L457.1,275.5L457.1,275.5z M306.8,275.5l1.1-7.9h10.8l19.5-146.4h-10.8l1.1-7.9h28.4l-3.6,27.4c3.2-9.6,7.8-17.4,13.7-23.2
			c6-5.8,12.3-8.7,18.9-8.7c10.3,0,17,4.2,20.1,12.6c3.1,8.4,2.9,25.3-0.4,50.7l-12.7,95.5h10.8l-1.1,7.9h-40l1.1-7.9h11l13.1-98.2
			c3-22.2,3.8-36.3,2.4-42.3c-1.4-6-4.8-9-10.4-9c-6.9,0-13.1,5.5-18.7,16.4c-5.6,10.9-9.6,25.6-12.1,44.2l-11.9,89h10.8l-1.1,7.9
			H306.8L306.8,275.5z"/>
	</g>
	<text transform="matrix(1 0 0 1 518.904 310.7759)" class="st4 st5 st6">simulator</text>
</g>
</svg>
