<?xml version="1.0" encoding="utf-8"?>
<!-- Generator: Adobe Illustrator 22.0.0, SVG Export Plug-In . SVG Version: 6.00 Build 0)  -->
<svg version="1.1" id="Layer_1" xmlns="http://www.w3.org/2000/svg" xmlns:xlink="http://www.w3.org/1999/xlink" x="0px" y="0px"
	 viewBox="0 0 758.2 386.6" style="enable-background:new 0 0 758.2 386.6;" xml:space="preserve">
<style type="text/css">
	.st0{fill-rule:evenodd;clip-rule:evenodd;fill:none;stroke:#FFFFFF;stroke-miterlimit:10;}
	.st1{fill-rule:evenodd;clip-rule:evenodd;fill:none;stroke:#00A2EA;stroke-miterlimit:10;}
	.st2{fill:#FFFFFF;}
	.st3{font-family:'AmericanTypewriter-Light';}
	.st4{font-size:16.819px;}
</style>
<g>
	<polygon class="st0" points="329,70.9 304.4,114.9 303.1,112.2 326.1,70.9 329,70.9 	"/>
	<polygon class="st1" points="327.6,68.2 303,112.2 281.8,68.2 327.6,68.2 	"/>
	<path class="st0" d="M283.7,131.7h29.5l-20,154.3h10.7l-1,7.9h-40.2l1-7.9h10.7l19-146.4h-10.7L283.7,131.7L283.7,131.7z
		 M553.6,235.8c-3.9,19-9.6,33.9-17.2,44.6c-8.4,12-18.5,17.9-30.2,17.9c-13.1,0-23-8.2-29.6-24.8c-6.6-16.5-8.2-37.6-4.9-63
		c3.3-25.3,10.4-46.1,21.2-62.4c10.8-16.3,22.8-24.4,35.8-24.4c12.2,0,20.9,6.1,26.1,18.3c5.2,12.1,6.4,29.2,3.5,50.9l-0.6,4.6
		h-63.3c-0.2,1.2-0.5,3.5-1,6.6c-0.5,3.1-0.8,5.6-1.1,7.4c-3.3,25.6-3.5,45-0.6,58c3,13.1,9,19.6,18.2,19.6
		c8.8,0,16.7-5.3,23.7-15.9c6.1-9.3,10.9-21.8,14.3-37.5C548.8,229.3,554.8,230.2,553.6,235.8L553.6,235.8z M496.2,189.3l41.9,0.2
		c0.4-2.3,0.7-4.6,1-6.6c0.3-2.1,0.5-4,0.8-5.8c2-15.7,2-27.3,0-35c-2.1-7.6-6.2-11.5-12.4-11.5c-7,0-13.3,5.1-18.7,15.4
		C503.3,156.3,499.1,170.7,496.2,189.3L496.2,189.3z M268.5,235.8c-3.9,19-9.6,33.9-17.2,44.6c-8.4,12-18.5,17.9-30.2,17.9
		c-13.1,0-23-8.2-29.6-24.8c-6.6-16.5-8.2-37.6-4.9-63c3.3-25.3,10.4-46.1,21.2-62.4c10.8-16.3,22.8-24.4,35.8-24.4
		c12.2,0,20.9,6.1,26.1,18.3c5.2,12.1,6.4,29.2,3.5,50.9l-0.6,4.6h-63.3c-0.2,1.2-0.5,3.5-1,6.6c-0.5,3.1-0.8,5.6-1.1,7.4
		c-3.3,25.6-3.5,45-0.6,58c3,13.1,9,19.6,18.2,19.6c8.8,0,16.7-5.3,23.7-15.9c6.1-9.3,10.9-21.8,14.3-37.5
		C263.7,229.3,269.7,230.2,268.5,235.8L268.5,235.8z M211.1,189.3l41.9,0.2c0.4-2.3,0.7-4.6,1-6.6c0.3-2.1,0.5-4,0.8-5.8
		c2-15.7,2-27.3,0-35c-2.1-7.6-6.2-11.5-12.4-11.5c-7,0-13.3,5.1-18.7,15.4C218.2,156.3,214,170.7,211.1,189.3L211.1,189.3z
		 M87.3,215.1c0,0.4,0,1.1,0.1,2.2c2.5,51.9,11.2,77.4,26,76.6c9.9-0.5,18.7-5.8,26.4-15.7c7.7-9.9,12.5-22,14.3-36.3
		c1.3-9.7,0.4-17.8-2.5-24.2c-3-6.4-10.3-13.9-22.1-22.4c-17.5-12.5-28.4-23.1-32.5-31.9c-4.1-8.8-5.3-20.1-3.6-33.7
		c2.3-17.9,8.8-32.6,19.5-44.3c10.7-11.7,23.5-18,38.6-18.8c5.9-0.3,11.7,0.5,17.4,2.4c5.7,1.9,11.3,4.9,16.8,9
		c-2.7,20.7-5.3,41.3-8,62c-0.3,4.8-4.3,4.7-4.4,0.2c-0.1-1.7-0.2-4-0.5-6.9c-2.4-40.6-10.8-60.5-25.1-59.7
		c-9.5,0.5-17.8,4.6-25,12.4c-7.1,7.7-11.4,17.2-12.9,28.4c-2.2,17.3,7.2,33.3,28.4,48c1,0.6,1.6,1.1,2.1,1.4
		c16.2,11.2,26.4,21.3,30.4,30.3c4.1,9.1,5.2,20.6,3.4,34.5c-2.6,19.7-9.8,36.6-21.7,50.6c-11.9,14-25.6,21.4-41.2,22.2
		c-8.5,0.5-16.1-0.9-22.8-4.3c-6.8-3.3-11.5-7.9-14.3-13.7c2.9-22.7,5.9-45.4,8.8-68.2C83.2,211.7,87,211.7,87.3,215.1L87.3,215.1z
		 M655.9,136.4c-7.6,0-13.9,6.4-19.1,19.2c-5.2,12.8-9.5,32.7-12.9,59.5c-3.2,25.1-3.8,43.7-1.8,55.8c2,12.1,6.8,18.1,14.2,18.1
		c7.3,0,13.4-6.2,18.5-18.6c5.1-12.4,9.3-31.3,12.5-56.9c3.5-27.4,4.3-47.1,2.5-59.1C668.1,142.4,663.5,136.4,655.9,136.4
		L655.9,136.4z M672.5,80.6l1-7.9h29.7l-27.1,212.9h11.2l-1,8.2h-28l4.2-32.8c-3.5,12.6-7.8,22-12.9,28.2c-5,6.1-11,9.2-17.9,9.2
		c-11.4,0-19.7-7.8-25-23.3c-5.2-15.6-6.2-35.9-3.1-60.9c3.2-24.9,9.6-45.6,19.2-62.1c9.6-16.4,20.1-24.6,31.3-24.6
		c6.1,0,10.9,2.6,14.3,7.8c3.4,5.2,5.5,13.1,6.1,23.5l9.9-78.1H672.5L672.5,80.6z M577.3,72.7h29.1L579.2,286h11.3l-1,7.9h-40.4
		l1-7.9h10.5l26.2-205.3h-10.5L577.3,72.7L577.3,72.7z M460.7,293.9h-48.9l1.1-8.4h12.4l20.2-148.2h-10l1.1-8h10l1.3-9.2
		c2.5-18.3,6.8-32.1,13-41.4c6.2-9.3,14.1-13.9,23.9-13.9c3.3,0,6.5,0.5,9.5,1.7c3.1,1.1,6.1,2.8,9.1,5.1
		c-1.8,13.4-3.7,26.7-5.5,40.1c-0.4,4.5-6.2,4.2-6.5,0c-1.4-17.6-2.7-28.7-3.9-33.3c-1.2-4.6-2.9-6.8-5.1-6.8
		c-2.9,0-5.2,2.2-6.9,6.5c-1.7,4.3-3.6,13.8-5.6,28.4l-3.1,22.8h23.8l-1.1,8H466l-20.2,148.2h16.2L460.7,293.9L460.7,293.9z
		 M310.5,293.9l1.1-7.9h10.8l19.5-146.4h-10.8l1.1-7.9h28.4l-3.6,27.4c3.2-9.6,7.8-17.4,13.7-23.2c6-5.8,12.3-8.7,18.9-8.7
		c10.3,0,17,4.2,20.1,12.6c3.1,8.4,2.9,25.3-0.4,50.7L396.5,286h10.8l-1.1,7.9h-40l1.1-7.9h11l13.1-98.2c3-22.2,3.8-36.3,2.4-42.3
		c-1.4-6-4.8-9-10.4-9c-6.9,0-13.1,5.5-18.7,16.4c-5.6,10.9-9.6,25.6-12.1,44.2l-11.9,89h10.8l-1.1,7.9H310.5L310.5,293.9z"/>
	<path class="st1" d="M280.7,132h29.5l-20,154.3h10.7l-1,7.9h-40.2l1-7.9h10.7l19-146.4h-10.7L280.7,132L280.7,132z M550.6,236.1
		c-3.9,19-9.6,33.9-17.2,44.6c-8.4,12-18.5,17.9-30.2,17.9c-13.1,0-23-8.2-29.6-24.8c-6.6-16.5-8.2-37.6-4.9-63
		c3.3-25.3,10.4-46.1,21.2-62.4c10.8-16.3,22.8-24.4,35.8-24.4c12.2,0,20.9,6.1,26.1,18.3c5.2,12.1,6.4,29.2,3.5,50.9l-0.6,4.6
		h-63.3c-0.2,1.2-0.5,3.5-1,6.6c-0.5,3.1-0.8,5.6-1.1,7.4c-3.3,25.6-3.5,45-0.6,58c3,13.1,9,19.6,18.2,19.6
		c8.8,0,16.7-5.3,23.7-15.9c6.1-9.3,10.9-21.8,14.3-37.5C545.8,229.6,551.7,230.5,550.6,236.1L550.6,236.1z M493.2,189.6l41.9,0.2
		c0.4-2.3,0.7-4.6,1-6.6c0.3-2.1,0.5-4,0.8-5.8c2-15.7,2-27.3,0-35c-2.1-7.6-6.2-11.5-12.4-11.5c-7,0-13.3,5.1-18.7,15.4
		C500.2,156.5,496.1,171,493.2,189.6L493.2,189.6z M265.5,236.1c-3.9,19-9.6,33.9-17.2,44.6c-8.4,12-18.5,17.9-30.2,17.9
		c-13.1,0-23-8.2-29.6-24.8c-6.6-16.5-8.2-37.6-4.9-63c3.3-25.3,10.4-46.1,21.2-62.4c10.8-16.3,22.8-24.4,35.8-24.4
		c12.2,0,20.9,6.1,26.1,18.3c5.2,12.1,6.4,29.2,3.5,50.9l-0.6,4.6h-63.3c-0.2,1.2-0.5,3.5-1,6.6c-0.5,3.1-0.8,5.6-1.1,7.4
		c-3.3,25.6-3.5,45-0.6,58c3,13.1,9,19.6,18.2,19.6c8.8,0,16.7-5.3,23.7-15.9c6.1-9.3,10.9-21.8,14.3-37.5
		C260.7,229.6,266.6,230.5,265.5,236.1L265.5,236.1z M208.1,189.6l41.9,0.2c0.4-2.3,0.7-4.6,1-6.6c0.3-2.1,0.5-4,0.8-5.8
		c2-15.7,2-27.3,0-35c-2.1-7.6-6.2-11.5-12.4-11.5c-7,0-13.3,5.1-18.7,15.4C215.1,156.5,211,171,208.1,189.6L208.1,189.6z
		 M84.3,215.4c0,0.4,0,1.1,0.1,2.2c2.5,51.9,11.2,77.4,26,76.6c9.9-0.5,18.7-5.8,26.4-15.7c7.7-9.9,12.5-22,14.3-36.3
		c1.3-9.7,0.4-17.8-2.5-24.2c-3-6.4-10.3-13.9-22.1-22.4C109,183.2,98.1,172.5,94,163.7c-4.1-8.8-5.3-20.1-3.6-33.7
		c2.3-17.8,8.8-32.6,19.5-44.3c10.7-11.7,23.5-18,38.6-18.8c5.9-0.3,11.7,0.5,17.4,2.4c5.7,1.9,11.3,4.9,16.8,9
		c-2.7,20.7-5.3,41.3-8,62c-0.3,4.8-4.3,4.7-4.4,0.2c-0.1-1.7-0.2-4-0.5-6.9c-2.4-40.6-10.8-60.5-25.1-59.7
		c-9.5,0.5-17.8,4.6-25,12.4c-7.1,7.7-11.4,17.2-12.9,28.4c-2.2,17.3,7.2,33.3,28.4,48c1,0.6,1.6,1.1,2.1,1.4
		c16.2,11.2,26.4,21.3,30.4,30.3c4.1,9.1,5.2,20.6,3.4,34.5c-2.6,19.7-9.8,36.6-21.7,50.6c-11.9,14-25.6,21.4-41.2,22.2
		c-8.5,0.5-16.1-0.9-22.8-4.3c-6.8-3.3-11.5-7.9-14.3-13.7c2.9-22.7,5.9-45.4,8.8-68.2C80.2,212,84,212,84.3,215.4L84.3,215.4z
		 M652.9,136.7c-7.6,0-13.9,6.4-19.1,19.2c-5.2,12.8-9.5,32.7-12.9,59.5c-3.2,25.1-3.8,43.7-1.8,55.8c2,12.1,6.8,18.1,14.2,18.1
		c7.3,0,13.4-6.2,18.5-18.6c5.1-12.4,9.3-31.3,12.5-56.9c3.5-27.4,4.3-47.1,2.5-59.1C665.1,142.7,660.4,136.7,652.9,136.7
		L652.9,136.7z M669.5,80.9l1-7.9h29.7L673.1,286h11.2l-1,8.2h-28l4.2-32.8c-3.5,12.6-7.8,22-12.9,28.2c-5,6.1-11,9.2-17.9,9.2
		c-11.4,0-19.7-7.8-25-23.3c-5.2-15.6-6.2-35.9-3.1-60.9c3.2-24.9,9.6-45.6,19.2-62.1c9.6-16.4,20.1-24.7,31.3-24.7
		c6.1,0,10.9,2.6,14.3,7.8c3.4,5.2,5.5,13.1,6.1,23.5l9.9-78.1H669.5L669.5,80.9z M574.3,73h29.1l-27.2,213.2h11.3l-1,7.9h-40.4
		l1-7.9h10.5l26.2-205.3h-10.5L574.3,73L574.3,73z M457.7,294.2h-48.9l1.1-8.4h12.4l20.2-148.2h-10l1.1-8h10l1.3-9.2
		c2.5-18.3,6.8-32.1,13-41.4c6.2-9.3,14.1-13.9,23.9-13.9c3.3,0,6.5,0.5,9.5,1.7c3.1,1.1,6.1,2.8,9.1,5.1
		c-1.8,13.4-3.7,26.7-5.5,40.1c-0.4,4.5-6.2,4.2-6.5,0c-1.4-17.6-2.7-28.7-3.9-33.3c-1.2-4.6-2.9-6.8-5.1-6.8
		c-2.9,0-5.2,2.2-6.9,6.5c-1.7,4.3-3.6,13.8-5.6,28.4l-3.1,22.8h23.8l-1.1,8h-23.8l-20.2,148.2h16.2L457.7,294.2L457.7,294.2z
		 M307.5,294.2l1.1-7.9h10.8l19.5-146.4H328l1.1-7.9h28.4l-3.6,27.4c3.2-9.6,7.8-17.4,13.7-23.2c6-5.8,12.3-8.7,18.9-8.7
		c10.3,0,17,4.2,20.1,12.6c3.1,8.4,2.9,25.3-0.4,50.7l-12.7,95.5h10.8l-1.1,7.9h-40l1.1-7.9h11l13.1-98.2c3-22.2,3.8-36.3,2.4-42.3
		c-1.4-6-4.8-9-10.4-9c-6.9,0-13.1,5.5-18.7,16.4c-5.6,10.9-9.6,25.6-12.1,44.2l-11.9,89h10.8l-1.1,7.9H307.5L307.5,294.2z"/>
</g>
<text transform="matrix(1 0 0 1 603.7459 321.2346)" class="st2 st3 st4">simulator</text>
</svg>
